<?xml version="1.0" encoding="UTF-8"?>
<!DOCTYPE svg PUBLIC "-//W3C//DTD SVG 1.1//EN" "http://www.w3.org/Graphics/SVG/1.1/DTD/svg11.dtd">
<!-- Creator: CorelDRAW X6 -->
<svg xmlns="http://www.w3.org/2000/svg" xml:space="preserve" width="33.3333in" height="33.3333in" version="1.1" style="shape-rendering:geometricPrecision; text-rendering:geometricPrecision; image-rendering:optimizeQuality; fill-rule:evenodd; clip-rule:evenodd"
viewBox="0 0 33333 33333"
 xmlns:xlink="http://www.w3.org/1999/xlink">
 <defs>
  <style type="text/css">
   <![CDATA[
    .fil0 {fill:#E1E1E1;fill-rule:nonzero}
    .fil43 {fill:url(#id36);fill-rule:nonzero}
    .fil41 {fill:url(#id37);fill-rule:nonzero}
    .fil20 {fill:url(#id38);fill-rule:nonzero}
    .fil19 {fill:url(#id39);fill-rule:nonzero}
    .fil21 {fill:url(#id40);fill-rule:nonzero}
    .fil18 {fill:url(#id41);fill-rule:nonzero}
    .fil44 {fill:url(#id42);fill-rule:nonzero}
    .fil40 {fill:url(#id43);fill-rule:nonzero}
    .fil22 {fill:url(#id44);fill-rule:nonzero}
    .fil17 {fill:url(#id45);fill-rule:nonzero}
    .fil45 {fill:url(#id46);fill-rule:nonzero}
    .fil60 {fill:url(#id47);fill-rule:nonzero}
    .fil39 {fill:url(#id48);fill-rule:nonzero}
    .fil23 {fill:url(#id49);fill-rule:nonzero}
    .fil59 {fill:url(#id50);fill-rule:nonzero}
    .fil46 {fill:url(#id51);fill-rule:nonzero}
    .fil24 {fill:url(#id52);fill-rule:nonzero}
    .fil38 {fill:url(#id53);fill-rule:nonzero}
    .fil15 {fill:url(#id54);fill-rule:nonzero}
    .fil58 {fill:url(#id55);fill-rule:nonzero}
    .fil13 {fill:url(#id56);fill-rule:nonzero}
    .fil25 {fill:url(#id57);fill-rule:nonzero}
    .fil37 {fill:url(#id58);fill-rule:nonzero}
    .fil57 {fill:url(#id59);fill-rule:nonzero}
    .fil47 {fill:url(#id60);fill-rule:nonzero}
    .fil36 {fill:url(#id61);fill-rule:nonzero}
    .fil26 {fill:url(#id62);fill-rule:nonzero}
    .fil14 {fill:url(#id63);fill-rule:nonzero}
    .fil56 {fill:url(#id64);fill-rule:nonzero}
    .fil35 {fill:url(#id65);fill-rule:nonzero}
    .fil16 {fill:url(#id66);fill-rule:nonzero}
    .fil55 {fill:url(#id67);fill-rule:nonzero}
    .fil34 {fill:url(#id68);fill-rule:nonzero}
    .fil27 {fill:url(#id69);fill-rule:nonzero}
    .fil54 {fill:url(#id70);fill-rule:nonzero}
    .fil48 {fill:url(#id71);fill-rule:nonzero}
    .fil28 {fill:url(#id72);fill-rule:nonzero}
    .fil33 {fill:url(#id73);fill-rule:nonzero}
    .fil49 {fill:url(#id74);fill-rule:nonzero}
    .fil53 {fill:url(#id75);fill-rule:nonzero}
    .fil29 {fill:url(#id76);fill-rule:nonzero}
    .fil32 {fill:url(#id77);fill-rule:nonzero}
    .fil30 {fill:url(#id78);fill-rule:nonzero}
    .fil31 {fill:url(#id79);fill-rule:nonzero}
    .fil50 {fill:url(#id80);fill-rule:nonzero}
    .fil52 {fill:url(#id81);fill-rule:nonzero}
    .fil9 {fill:url(#id82);fill-rule:nonzero}
    .fil11 {fill:url(#id83);fill-rule:nonzero}
    .fil12 {fill:url(#id84);fill-rule:nonzero}
    .fil61 {fill:url(#id85);fill-rule:nonzero}
    .fil67 {fill:url(#id86);fill-rule:nonzero}
    .fil64 {fill:url(#id87);fill-rule:nonzero}
    .fil10 {fill:url(#id88);fill-rule:nonzero}
    .fil63 {fill:url(#id89);fill-rule:nonzero}
    .fil69 {fill:url(#id90);fill-rule:nonzero}
    .fil66 {fill:url(#id91);fill-rule:nonzero}
    .fil42 {fill:url(#id92);fill-rule:nonzero}
    .fil51 {fill:url(#id93);fill-rule:nonzero}
    .fil5 {fill:url(#id94);fill-rule:nonzero}
    .fil8 {fill:url(#id95);fill-rule:nonzero}
    .fil7 {fill:url(#id96);fill-rule:nonzero}
    .fil6 {fill:url(#id97);fill-rule:nonzero}
    .fil62 {fill:url(#id98);fill-rule:nonzero}
    .fil68 {fill:url(#id99);fill-rule:nonzero}
    .fil65 {fill:url(#id100);fill-rule:nonzero}
    .fil1 {fill:url(#id101);fill-rule:nonzero}
    .fil2 {fill:url(#id102);fill-rule:nonzero}
    .fil3 {fill:url(#id103);fill-rule:nonzero}
    .fil4 {fill:url(#id104);fill-rule:nonzero}
   ]]>
  </style>
    <mask id="id0">
  <linearGradient id="id1" gradientUnits="userSpaceOnUse" x1="16666.6" y1="11190" x2="22143.3" y2="16666.7">
   <stop offset="0" style="stop-opacity:0; stop-color:white"/>
   <stop offset="0.101961" style="stop-opacity:0; stop-color:white"/>
   <stop offset="0.501961" style="stop-opacity:0.6; stop-color:white"/>
   <stop offset="0.901961" style="stop-opacity:0; stop-color:white"/>
   <stop offset="1" style="stop-opacity:0; stop-color:white"/>
  </linearGradient>
     <rect style="fill:url(#id1)" x="16665" y="11189" width="5480" height="5480"/>
    </mask>
    <mask id="id2">
  <linearGradient id="id3" gradientUnits="userSpaceOnUse" x1="16666.7" y1="9334.91" x2="23998.4" y2="16666.7">
   <stop offset="0" style="stop-opacity:0; stop-color:white"/>
   <stop offset="0.101961" style="stop-opacity:0; stop-color:white"/>
   <stop offset="0.219608" style="stop-opacity:0.298039; stop-color:white"/>
   <stop offset="0.501961" style="stop-opacity:0.6; stop-color:white"/>
   <stop offset="0.780392" style="stop-opacity:0.301961; stop-color:white"/>
   <stop offset="0.901961" style="stop-opacity:0; stop-color:white"/>
   <stop offset="1" style="stop-opacity:0; stop-color:white"/>
  </linearGradient>
     <rect style="fill:url(#id3)" x="16665" y="9333" width="7335" height="7335"/>
    </mask>
    <mask id="id4">
  <linearGradient id="id5" gradientUnits="userSpaceOnUse" x1="16666.7" y1="6061.82" x2="27271.5" y2="16666.7">
   <stop offset="0" style="stop-opacity:0; stop-color:white"/>
   <stop offset="0.101961" style="stop-opacity:0; stop-color:white"/>
   <stop offset="0.219608" style="stop-opacity:0.298039; stop-color:white"/>
   <stop offset="0.501961" style="stop-opacity:0.6; stop-color:white"/>
   <stop offset="0.780392" style="stop-opacity:0.301961; stop-color:white"/>
   <stop offset="0.901961" style="stop-opacity:0; stop-color:white"/>
   <stop offset="1" style="stop-opacity:0; stop-color:white"/>
  </linearGradient>
     <rect style="fill:url(#id5)" x="16665" y="6060" width="10608" height="10608"/>
    </mask>
    <mask id="id6">
  <linearGradient id="id7" gradientUnits="userSpaceOnUse" x1="16666.7" y1="2083.35" x2="31250" y2="16666.7">
   <stop offset="0" style="stop-opacity:0; stop-color:white"/>
   <stop offset="0.101961" style="stop-opacity:0; stop-color:white"/>
   <stop offset="0.219608" style="stop-opacity:0.298039; stop-color:white"/>
   <stop offset="0.501961" style="stop-opacity:0.6; stop-color:white"/>
   <stop offset="0.780392" style="stop-opacity:0.301961; stop-color:white"/>
   <stop offset="0.901961" style="stop-opacity:0; stop-color:white"/>
   <stop offset="1" style="stop-opacity:0; stop-color:white"/>
  </linearGradient>
     <rect style="fill:url(#id7)" x="16665" y="2082" width="14586" height="14586"/>
    </mask>
    <mask id="id8">
  <linearGradient id="id9" gradientUnits="userSpaceOnUse" x1="16666.7" y1="22143.3" x2="11190" y2="16666.7">
   <stop offset="0" style="stop-opacity:0; stop-color:white"/>
   <stop offset="0.101961" style="stop-opacity:0; stop-color:white"/>
   <stop offset="0.501961" style="stop-opacity:0.6; stop-color:white"/>
   <stop offset="0.901961" style="stop-opacity:0; stop-color:white"/>
   <stop offset="1" style="stop-opacity:0.6; stop-color:white"/>
  </linearGradient>
     <rect style="fill:url(#id9)" x="11188" y="16665" width="5480" height="5480"/>
    </mask>
    <mask id="id10">
  <linearGradient id="id11" gradientUnits="userSpaceOnUse" x1="16666.7" y1="23998.4" x2="9334.89" y2="16666.7">
   <stop offset="0" style="stop-opacity:0; stop-color:white"/>
   <stop offset="0.101961" style="stop-opacity:0; stop-color:white"/>
   <stop offset="0.219608" style="stop-opacity:0.298039; stop-color:white"/>
   <stop offset="0.501961" style="stop-opacity:0.6; stop-color:white"/>
   <stop offset="0.780392" style="stop-opacity:0.301961; stop-color:white"/>
   <stop offset="0.901961" style="stop-opacity:0; stop-color:white"/>
   <stop offset="1" style="stop-opacity:0; stop-color:white"/>
  </linearGradient>
     <rect style="fill:url(#id11)" x="9333" y="16665" width="7335" height="7335"/>
    </mask>
    <mask id="id12">
  <linearGradient id="id13" gradientUnits="userSpaceOnUse" x1="16666.6" y1="27271.5" x2="6061.79" y2="16666.7">
   <stop offset="0" style="stop-opacity:0; stop-color:white"/>
   <stop offset="0.101961" style="stop-opacity:0; stop-color:white"/>
   <stop offset="0.219608" style="stop-opacity:0.298039; stop-color:white"/>
   <stop offset="0.501961" style="stop-opacity:0.6; stop-color:white"/>
   <stop offset="0.780392" style="stop-opacity:0.301961; stop-color:white"/>
   <stop offset="0.901961" style="stop-opacity:0; stop-color:white"/>
   <stop offset="1" style="stop-opacity:0; stop-color:white"/>
  </linearGradient>
     <rect style="fill:url(#id13)" x="6060" y="16665" width="10608" height="10608"/>
    </mask>
    <mask id="id14">
  <linearGradient id="id15" gradientUnits="userSpaceOnUse" x1="16666.6" y1="31250" x2="2083.32" y2="16666.7">
   <stop offset="0" style="stop-opacity:0; stop-color:white"/>
   <stop offset="0.101961" style="stop-opacity:0; stop-color:white"/>
   <stop offset="0.219608" style="stop-opacity:0.298039; stop-color:white"/>
   <stop offset="0.501961" style="stop-opacity:0.6; stop-color:white"/>
   <stop offset="0.780392" style="stop-opacity:0.301961; stop-color:white"/>
   <stop offset="0.901961" style="stop-opacity:0; stop-color:white"/>
   <stop offset="1" style="stop-opacity:0; stop-color:white"/>
  </linearGradient>
     <rect style="fill:url(#id15)" x="2082" y="16665" width="14586" height="14586"/>
    </mask>
    <mask id="id16">
  <linearGradient id="id17" gradientUnits="userSpaceOnUse" x1="16666.7" y1="22143.3" x2="22143.3" y2="16666.7">
   <stop offset="0" style="stop-opacity:0; stop-color:white"/>
   <stop offset="0.101961" style="stop-opacity:0; stop-color:white"/>
   <stop offset="0.501961" style="stop-opacity:0.2; stop-color:white"/>
   <stop offset="0.901961" style="stop-opacity:0; stop-color:white"/>
   <stop offset="1" style="stop-opacity:0.6; stop-color:white"/>
  </linearGradient>
     <rect style="fill:url(#id17)" x="16665" y="16665" width="5480" height="5480"/>
    </mask>
    <mask id="id18">
  <linearGradient id="id19" gradientUnits="userSpaceOnUse" x1="16666.7" y1="23998.4" x2="23998.4" y2="16666.7">
   <stop offset="0" style="stop-opacity:0; stop-color:white"/>
   <stop offset="0.101961" style="stop-opacity:0; stop-color:white"/>
   <stop offset="0.219608" style="stop-opacity:0.0980392; stop-color:white"/>
   <stop offset="0.501961" style="stop-opacity:0.2; stop-color:white"/>
   <stop offset="0.780392" style="stop-opacity:0.101961; stop-color:white"/>
   <stop offset="0.901961" style="stop-opacity:0; stop-color:white"/>
   <stop offset="1" style="stop-opacity:0; stop-color:white"/>
  </linearGradient>
     <rect style="fill:url(#id19)" x="16665" y="16665" width="7335" height="7335"/>
    </mask>
    <mask id="id20">
  <linearGradient id="id21" gradientUnits="userSpaceOnUse" x1="16666.7" y1="27271.5" x2="27271.5" y2="16666.7">
   <stop offset="0" style="stop-opacity:0; stop-color:white"/>
   <stop offset="0.101961" style="stop-opacity:0; stop-color:white"/>
   <stop offset="0.501961" style="stop-opacity:0.2; stop-color:white"/>
   <stop offset="0.901961" style="stop-opacity:0; stop-color:white"/>
   <stop offset="1" style="stop-opacity:0.2; stop-color:white"/>
  </linearGradient>
     <rect style="fill:url(#id21)" x="16665" y="16665" width="10608" height="10608"/>
    </mask>
    <mask id="id22">
  <linearGradient id="id23" gradientUnits="userSpaceOnUse" x1="16666.7" y1="31250" x2="31250" y2="16666.7">
   <stop offset="0" style="stop-opacity:0; stop-color:white"/>
   <stop offset="0.101961" style="stop-opacity:0; stop-color:white"/>
   <stop offset="0.501961" style="stop-opacity:0.2; stop-color:white"/>
   <stop offset="0.901961" style="stop-opacity:0; stop-color:white"/>
   <stop offset="1" style="stop-opacity:0.2; stop-color:white"/>
  </linearGradient>
     <rect style="fill:url(#id23)" x="16665" y="16665" width="14586" height="14586"/>
    </mask>
    <mask id="id24">
  <linearGradient id="id25" gradientUnits="userSpaceOnUse" x1="16666.6" y1="5769.29" x2="16666.6" y2="16805.6">
   <stop offset="0" style="stop-opacity:0; stop-color:white"/>
   <stop offset="0.25098" style="stop-opacity:0.85098; stop-color:white"/>
   <stop offset="1" style="stop-opacity:0.298039; stop-color:white"/>
  </linearGradient>
     <rect style="fill:url(#id25)" x="5768" y="5768" width="21798" height="11039"/>
    </mask>
    <mask id="id26">
  <linearGradient id="id27" gradientUnits="userSpaceOnUse" x1="16666.6" y1="27564" x2="16666.6" y2="16527.8">
   <stop offset="0" style="stop-opacity:0; stop-color:white"/>
   <stop offset="0.25098" style="stop-opacity:0.501961; stop-color:white"/>
   <stop offset="1" style="stop-opacity:1; stop-color:white"/>
  </linearGradient>
     <rect style="fill:url(#id27)" x="5768" y="16526" width="21798" height="11039"/>
    </mask>
    <mask id="id28">
  <linearGradient id="id29" gradientUnits="userSpaceOnUse" x1="16666.6" y1="10897.3" x2="16666.6" y2="16743.1">
   <stop offset="0" style="stop-opacity:0; stop-color:white"/>
   <stop offset="0.25098" style="stop-opacity:0.85098; stop-color:white"/>
   <stop offset="1" style="stop-opacity:0.298039; stop-color:white"/>
  </linearGradient>
     <rect style="fill:url(#id29)" x="10896" y="10896" width="11542" height="5849"/>
    </mask>
    <mask id="id30">
  <linearGradient id="id31" gradientUnits="userSpaceOnUse" x1="16666.6" y1="22436" x2="16666.6" y2="16590.3">
   <stop offset="0" style="stop-opacity:0; stop-color:white"/>
   <stop offset="0.25098" style="stop-opacity:0.501961; stop-color:white"/>
   <stop offset="1" style="stop-opacity:1; stop-color:white"/>
  </linearGradient>
     <rect style="fill:url(#id31)" x="10896" y="16589" width="11542" height="5849"/>
    </mask>
    <mask id="id32">
  <linearGradient id="id33" gradientUnits="userSpaceOnUse" x1="16666.6" y1="9077.31" x2="16666.6" y2="16729.2">
   <stop offset="0" style="stop-opacity:0; stop-color:white"/>
   <stop offset="0.25098" style="stop-opacity:0.85098; stop-color:white"/>
   <stop offset="1" style="stop-opacity:0.298039; stop-color:white"/>
  </linearGradient>
     <rect style="fill:url(#id33)" x="9076" y="9076" width="15182" height="7655"/>
    </mask>
    <mask id="id34">
  <linearGradient id="id35" gradientUnits="userSpaceOnUse" x1="16666.6" y1="24256" x2="16666.6" y2="16604.2">
   <stop offset="0" style="stop-opacity:0; stop-color:white"/>
   <stop offset="0.25098" style="stop-opacity:0.501961; stop-color:white"/>
   <stop offset="1" style="stop-opacity:1; stop-color:white"/>
  </linearGradient>
     <rect style="fill:url(#id35)" x="9076" y="16603" width="15182" height="7655"/>
    </mask>
  <linearGradient id="id36" gradientUnits="userSpaceOnUse" x1="2083.33" y1="20514.7" x2="2688.64" y2="20514.7">
   <stop offset="0" style="stop-color:#ACACAC"/>
   <stop offset="0.101961" style="stop-color:#C1C2C2"/>
   <stop offset="0.501961" style="stop-color:#D7D7D7"/>
   <stop offset="0.901961" style="stop-color:#C2C2C3"/>
   <stop offset="1" style="stop-color:#ACACAC"/>
  </linearGradient>
  <linearGradient id="id37" gradientUnits="userSpaceOnUse" xlink:href="#id36" x1="2083.33" y1="12818.7" x2="2688.64" y2="12818.7">
  </linearGradient>
  <linearGradient id="id38" gradientUnits="userSpaceOnUse" xlink:href="#id36" x1="2083.33" y1="18646.3" x2="4506.98" y2="18646.3">
  </linearGradient>
  <linearGradient id="id39" gradientUnits="userSpaceOnUse" xlink:href="#id36" x1="2083.33" y1="14687.1" x2="4506.99" y2="14687.1">
  </linearGradient>
  <linearGradient id="id40" gradientUnits="userSpaceOnUse" xlink:href="#id36" x1="2526.17" y1="21634.3" x2="5657" y2="21634.3">
  </linearGradient>
  <linearGradient id="id41" gradientUnits="userSpaceOnUse" xlink:href="#id36" x1="2526.17" y1="11699.1" x2="5657" y2="11699.1">
  </linearGradient>
  <linearGradient id="id42" gradientUnits="userSpaceOnUse" xlink:href="#id36" x1="5512.14" y1="22765.2" x2="6611.48" y2="22765.2">
  </linearGradient>
  <linearGradient id="id43" gradientUnits="userSpaceOnUse" xlink:href="#id36" x1="5512.14" y1="10568.2" x2="6611.49" y2="10568.2">
  </linearGradient>
  <linearGradient id="id44" gradientUnits="userSpaceOnUse" xlink:href="#id36" x1="5548.01" y1="25071.4" x2="6611.48" y2="25071.4">
  </linearGradient>
  <linearGradient id="id45" gradientUnits="userSpaceOnUse" xlink:href="#id36" x1="5548.01" y1="8261.98" x2="6611.49" y2="8261.98">
  </linearGradient>
  <linearGradient id="id46" gradientUnits="userSpaceOnUse" xlink:href="#id36" x1="5548.01" y1="27150.9" x2="6816.8" y2="27150.9">
  </linearGradient>
  <linearGradient id="id47" gradientUnits="userSpaceOnUse" xlink:href="#id36" x1="5548.01" y1="6182.37" x2="6816.81" y2="6182.37">
  </linearGradient>
  <linearGradient id="id48" gradientUnits="userSpaceOnUse" xlink:href="#id36" x1="6762.98" y1="6079.74" x2="9760.94" y2="6079.74">
  </linearGradient>
  <linearGradient id="id49" gradientUnits="userSpaceOnUse" xlink:href="#id36" x1="6762.98" y1="27253.6" x2="9760.99" y2="27253.6">
  </linearGradient>
  <linearGradient id="id50" gradientUnits="userSpaceOnUse" xlink:href="#id36" x1="9724.4" y1="6061.83" x2="11412" y2="6061.83">
  </linearGradient>
  <linearGradient id="id51" gradientUnits="userSpaceOnUse" xlink:href="#id36" x1="9724.45" y1="27271.5" x2="11412" y2="27271.5">
  </linearGradient>
  <linearGradient id="id52" gradientUnits="userSpaceOnUse" xlink:href="#id36" x1="11233.8" y1="29241.7" x2="12164.4" y2="29241.7">
  </linearGradient>
  <linearGradient id="id53" gradientUnits="userSpaceOnUse" xlink:href="#id36" x1="11233.8" y1="4091.57" x2="12164.4" y2="4091.57">
  </linearGradient>
  <linearGradient id="id54" gradientUnits="userSpaceOnUse" xlink:href="#id36" x1="11990.6" y1="30947.3" x2="13646.7" y2="30947.3">
  </linearGradient>
  <linearGradient id="id55" gradientUnits="userSpaceOnUse" xlink:href="#id36" x1="11990.6" y1="2385.98" x2="13646.7" y2="2385.98">
  </linearGradient>
  <linearGradient id="id56" gradientUnits="userSpaceOnUse" xlink:href="#id36" x1="12380" y1="16666.7" x2="20953.2" y2="16666.7">
  </linearGradient>
  <linearGradient id="id57" gradientUnits="userSpaceOnUse" xlink:href="#id36" x1="13577.4" y1="30038.3" x2="15796.8" y2="30038.3">
  </linearGradient>
  <linearGradient id="id58" gradientUnits="userSpaceOnUse" xlink:href="#id36" x1="13577.4" y1="3295.15" x2="15796.7" y2="3295.15">
  </linearGradient>
  <linearGradient id="id59" gradientUnits="userSpaceOnUse" xlink:href="#id36" x1="15714.7" y1="4384.29" x2="17618.5" y2="4384.29">
  </linearGradient>
  <linearGradient id="id60" gradientUnits="userSpaceOnUse" xlink:href="#id36" x1="15714.8" y1="28949.1" x2="17618.5" y2="28949.1">
  </linearGradient>
  <linearGradient id="id61" gradientUnits="userSpaceOnUse" xlink:href="#id36" x1="17536.6" y1="3295.15" x2="19755.9" y2="3295.15">
  </linearGradient>
  <linearGradient id="id62" gradientUnits="userSpaceOnUse" xlink:href="#id36" x1="17536.6" y1="29463.2" x2="22099.6" y2="29463.2">
  </linearGradient>
  <linearGradient id="id63" gradientUnits="userSpaceOnUse" xlink:href="#id36" x1="19686.6" y1="30947.3" x2="21342.6" y2="30947.3">
  </linearGradient>
  <linearGradient id="id64" gradientUnits="userSpaceOnUse" xlink:href="#id36" x1="19686.6" y1="2385.98" x2="21342.6" y2="2385.98">
  </linearGradient>
  <linearGradient id="id65" gradientUnits="userSpaceOnUse" xlink:href="#id36" x1="21168.9" y1="4091.57" x2="22099.6" y2="4091.57">
  </linearGradient>
  <linearGradient id="id66" gradientUnits="userSpaceOnUse" xlink:href="#id36" x1="21921.4" y1="27271.5" x2="23608.9" y2="27271.5">
  </linearGradient>
  <linearGradient id="id67" gradientUnits="userSpaceOnUse" xlink:href="#id36" x1="21921.4" y1="6061.83" x2="23608.9" y2="6061.83">
  </linearGradient>
  <linearGradient id="id68" gradientUnits="userSpaceOnUse" xlink:href="#id36" x1="23572.3" y1="6079.74" x2="26570.4" y2="6079.74">
  </linearGradient>
  <linearGradient id="id69" gradientUnits="userSpaceOnUse" xlink:href="#id36" x1="23572.4" y1="27253.6" x2="26570.4" y2="27253.6">
  </linearGradient>
  <linearGradient id="id70" gradientUnits="userSpaceOnUse" xlink:href="#id36" x1="26516.5" y1="6182.37" x2="27785.3" y2="6182.37">
  </linearGradient>
  <linearGradient id="id71" gradientUnits="userSpaceOnUse" xlink:href="#id36" x1="26516.6" y1="27150.9" x2="27785.3" y2="27150.9">
  </linearGradient>
  <linearGradient id="id72" gradientUnits="userSpaceOnUse" xlink:href="#id36" x1="26721.8" y1="25071.4" x2="27785.3" y2="25071.4">
  </linearGradient>
  <linearGradient id="id73" gradientUnits="userSpaceOnUse" xlink:href="#id36" x1="26721.8" y1="8261.98" x2="27785.3" y2="8261.98">
  </linearGradient>
  <linearGradient id="id74" gradientUnits="userSpaceOnUse" xlink:href="#id36" x1="26721.8" y1="22765.2" x2="27821.2" y2="22765.2">
  </linearGradient>
  <linearGradient id="id75" gradientUnits="userSpaceOnUse" xlink:href="#id36" x1="26721.8" y1="10568.2" x2="27821.2" y2="10568.2">
  </linearGradient>
  <linearGradient id="id76" gradientUnits="userSpaceOnUse" xlink:href="#id36" x1="27676.3" y1="21634.3" x2="30807.1" y2="21634.3">
  </linearGradient>
  <linearGradient id="id77" gradientUnits="userSpaceOnUse" xlink:href="#id36" x1="27676.3" y1="11699.1" x2="30807.1" y2="11699.1">
  </linearGradient>
  <linearGradient id="id78" gradientUnits="userSpaceOnUse" xlink:href="#id36" x1="28826.3" y1="18646.3" x2="31250" y2="18646.3">
  </linearGradient>
  <linearGradient id="id79" gradientUnits="userSpaceOnUse" xlink:href="#id36" x1="28826.3" y1="14687.1" x2="31250" y2="14687.1">
  </linearGradient>
  <linearGradient id="id80" gradientUnits="userSpaceOnUse" xlink:href="#id36" x1="30644.6" y1="20514.7" x2="31250" y2="20514.7">
  </linearGradient>
  <linearGradient id="id81" gradientUnits="userSpaceOnUse" xlink:href="#id36" x1="30644.6" y1="12818.7" x2="31250" y2="12818.7">
  </linearGradient>
  <linearGradient id="id82" gradientUnits="userSpaceOnUse" x1="16666.7" y1="22143.3" x2="22143.3" y2="16666.7">
   <stop offset="0" style="stop-color:black"/>
   <stop offset="0.101961" style="stop-color:black"/>
   <stop offset="0.501961" style="stop-color:black"/>
   <stop offset="0.901961" style="stop-color:black"/>
   <stop offset="1" style="stop-color:black"/>
  </linearGradient>
  <linearGradient id="id83" gradientUnits="userSpaceOnUse" xlink:href="#id82" x1="16666.7" y1="27271.5" x2="27271.5" y2="16666.7">
  </linearGradient>
  <linearGradient id="id84" gradientUnits="userSpaceOnUse" x1="16666.7" y1="31250" x2="31250" y2="16666.7">
   <stop offset="0" style="stop-color:#373435"/>
   <stop offset="0.101961" style="stop-color:#373435"/>
   <stop offset="0.501961" style="stop-color:#373435"/>
   <stop offset="0.901961" style="stop-color:#373435"/>
   <stop offset="1" style="stop-color:#373435"/>
  </linearGradient>
  <linearGradient id="id85" gradientUnits="userSpaceOnUse" x1="5769.23" y1="27564.1" x2="27564" y2="5769.26">
   <stop offset="0" style="stop-color:#C1C2C2"/>
   <stop offset="0.25098" style="stop-color:#D7D7D7"/>
   <stop offset="0.301961" style="stop-color:#CCCCCD"/>
   <stop offset="0.501961" style="stop-color:#C1C2C2"/>
   <stop offset="0.701961" style="stop-color:#CCCCCD"/>
   <stop offset="0.74902" style="stop-color:#D7D7D7"/>
   <stop offset="1" style="stop-color:#C1C2C2"/>
  </linearGradient>
  <linearGradient id="id86" gradientUnits="userSpaceOnUse" xlink:href="#id85" x1="9077.26" y1="24256" x2="24256" y2="9077.29">
  </linearGradient>
  <linearGradient id="id87" gradientUnits="userSpaceOnUse" xlink:href="#id85" x1="10897.3" y1="22436" x2="22436" y2="10897.3">
  </linearGradient>
  <linearGradient id="id88" gradientUnits="userSpaceOnUse" x1="16666.7" y1="23998.4" x2="23998.4" y2="16666.7">
   <stop offset="0" style="stop-color:#FEFEFE"/>
   <stop offset="0.101961" style="stop-color:#FEFEFE"/>
   <stop offset="0.219608" style="stop-color:#97999B"/>
   <stop offset="0.501961" style="stop-color:black"/>
   <stop offset="0.780392" style="stop-color:#96989A"/>
   <stop offset="0.901961" style="stop-color:#FEFEFE"/>
   <stop offset="1" style="stop-color:#FEFEFE"/>
  </linearGradient>
  <linearGradient id="id89" gradientUnits="userSpaceOnUse" x1="16666.6" y1="27564" x2="16666.6" y2="16527.8">
   <stop offset="0" style="stop-color:white"/>
   <stop offset="0.25098" style="stop-color:white"/>
   <stop offset="1" style="stop-color:white"/>
  </linearGradient>
  <linearGradient id="id90" gradientUnits="userSpaceOnUse" xlink:href="#id89" x1="16666.6" y1="24256" x2="16666.6" y2="16604.2">
  </linearGradient>
  <linearGradient id="id91" gradientUnits="userSpaceOnUse" xlink:href="#id89" x1="16666.6" y1="22436" x2="16666.6" y2="16590.3">
  </linearGradient>
  <linearGradient id="id92" gradientUnits="userSpaceOnUse" xlink:href="#id36" x1="4372.12" y1="17618.6" x2="4372.12" y2="15714.8">
  </linearGradient>
  <linearGradient id="id93" gradientUnits="userSpaceOnUse" xlink:href="#id36" x1="28962.5" y1="17618.6" x2="28962.5" y2="15714.8">
  </linearGradient>
  <linearGradient id="id94" gradientUnits="userSpaceOnUse" x1="16666.7" y1="22143.3" x2="11190" y2="16666.7">
   <stop offset="0" style="stop-color:#FEFEFE"/>
   <stop offset="0.101961" style="stop-color:#FEFEFE"/>
   <stop offset="0.501961" style="stop-color:#FEFEFE"/>
   <stop offset="0.901961" style="stop-color:#FEFEFE"/>
   <stop offset="1" style="stop-color:#FEFEFE"/>
  </linearGradient>
  <linearGradient id="id95" gradientUnits="userSpaceOnUse" x1="16666.6" y1="31250" x2="2083.32" y2="16666.7">
   <stop offset="0" style="stop-color:#FEFEFE"/>
   <stop offset="0.101961" style="stop-color:#FEFEFE"/>
   <stop offset="0.219608" style="stop-color:#FEFEFE"/>
   <stop offset="0.501961" style="stop-color:#FEFEFE"/>
   <stop offset="0.780392" style="stop-color:#FEFEFE"/>
   <stop offset="0.901961" style="stop-color:#FEFEFE"/>
   <stop offset="1" style="stop-color:#FEFEFE"/>
  </linearGradient>
  <linearGradient id="id96" gradientUnits="userSpaceOnUse" xlink:href="#id95" x1="16666.6" y1="27271.5" x2="6061.79" y2="16666.7">
  </linearGradient>
  <linearGradient id="id97" gradientUnits="userSpaceOnUse" xlink:href="#id95" x1="16666.7" y1="23998.4" x2="9334.89" y2="16666.7">
  </linearGradient>
  <linearGradient id="id98" gradientUnits="userSpaceOnUse" x1="16666.6" y1="5769.29" x2="16666.6" y2="16805.6">
   <stop offset="0" style="stop-color:#373435"/>
   <stop offset="0.25098" style="stop-color:#373435"/>
   <stop offset="1" style="stop-color:#373435"/>
  </linearGradient>
  <linearGradient id="id99" gradientUnits="userSpaceOnUse" xlink:href="#id98" x1="16666.6" y1="9077.31" x2="16666.6" y2="16729.2">
  </linearGradient>
  <linearGradient id="id100" gradientUnits="userSpaceOnUse" xlink:href="#id98" x1="16666.6" y1="10897.3" x2="16666.6" y2="16743.1">
  </linearGradient>
  <linearGradient id="id101" gradientUnits="userSpaceOnUse" xlink:href="#id94" x1="16666.6" y1="11190" x2="22143.3" y2="16666.7">
  </linearGradient>
  <linearGradient id="id102" gradientUnits="userSpaceOnUse" xlink:href="#id95" x1="16666.7" y1="9334.91" x2="23998.4" y2="16666.7">
  </linearGradient>
  <linearGradient id="id103" gradientUnits="userSpaceOnUse" xlink:href="#id95" x1="16666.7" y1="6061.82" x2="27271.5" y2="16666.7">
  </linearGradient>
  <linearGradient id="id104" gradientUnits="userSpaceOnUse" xlink:href="#id95" x1="16666.7" y1="2083.35" x2="31250" y2="16666.7">
  </linearGradient>
 </defs>
 <g id="gear">
  <metadata id="CorelCorpID_0Corel-Layer"/>
  <path class="fil0" d="M29072 16667c0,-292 -11,-582 -31,-870l2209 -2150c-116,-564 -265,-1117 -443,-1656l-2986 -757c-256,-525 -548,-1029 -873,-1509l837 -2962c-381,-428 -787,-834 -1215,-1215l-2961 837c-480,-325 -984,-616 -1509,-873l-757 -2986c-539,-178 -1092,-326 -1656,-443l-2150 2209c-287,-20 -577,-31 -870,-31 -292,0 -582,11 -870,31l-2150 -2209c-564,116 -1117,265 -1656,443l-757 2986c-525,256 -1029,548 -1509,873l-2961 -837c-428,381 -834,787 -1215,1215l837 2962c-325,480 -616,984 -873,1509l-2986 757c-178,539 -327,1092 -443,1656l2209 2150c-20,287 -31,577 -31,870 0,292 11,583 31,870l-2209 2150c116,564 265,1117 443,1656l2986 757c256,525 548,1029 873,1509l-837 2961c381,428 787,834 1215,1215l2961 -837c480,325 984,616 1509,872l757 2986c539,178 1092,327 1656,443l2150 -2209c287,20 577,31 870,31 292,0 582,-11 870,-31l2150 2209c564,-116 1117,-265 1656,-443l757 -2986c525,-256 1029,-548 1509,-872l2961 837c428,-381 834,-787 1215,-1215l-837 -2961c325,-480 616,-984 873,-1509l2986 -757c178,-539 326,-1092 443,-1656l-2209 -2150c20,-288 31,-578 31,-870zm-12405 4078l0 0c-2252,0 -4078,-1826 -4078,-4078 0,-2252 1826,-4078 4078,-4078 2252,0 4078,1826 4078,4078 0,2252 -1826,4078 -4078,4078z"/>
 </g>
 <g id="lights_x0020__x0026__x0020_shadow">
  <metadata id="CorelCorpID_1Corel-Layer"/>
  <g id="_276272064">
   <path class="fil1" style="mask:url(#id0)" d="M20953 16667c0,-1145 -446,-2221 -1256,-3031 -810,-810 -1886,-1256 -3031,-1256l0 -1190c3025,0 5477,2452 5477,5477l-1190 0z"/>
   <path class="fil2" style="mask:url(#id2)" d="M23998 16667c0,-4049 -3283,-7332 -7332,-7332l0 1562c3186,0 5769,2583 5769,5769l1562 0z"/>
   <path class="fil3" style="mask:url(#id4)" d="M27272 16667c0,-5857 -4748,-10605 -10605,-10605l0 3015c4192,0 7589,3398 7589,7589l3016 0z"/>
   <path class="fil4" style="mask:url(#id6)" d="M27564 16667c0,-6019 -4879,-10897 -10897,-10897l0 -1508c292,0 583,11 870,31l2150 -2209c564,116 1117,265 1656,443l757 2986c525,256 1029,548 1509,873l2961 -837c428,381 834,787 1215,1215l-837 2962c325,480 616,984 873,1509l2986 757c178,539 326,1092 443,1656l-2209 2150c20,287 31,577 31,870l-1508 0z"/>
  </g>
  <g id="_276273000">
   <path class="fil5" style="mask:url(#id8)" d="M12380 16667c0,1145 446,2221 1256,3031 810,810 1886,1256 3031,1256l0 1190c-3025,0 -5477,-2452 -5477,-5477l1190 0z"/>
   <path class="fil6" style="mask:url(#id10)" d="M9335 16667c0,4049 3283,7332 7332,7332l0 -1562c-3186,0 -5769,-2583 -5769,-5769l-1562 0z"/>
   <path class="fil7" style="mask:url(#id12)" d="M6062 16667c0,5857 4748,10605 10605,10605l0 -3015c-4192,0 -7589,-3398 -7589,-7589l-3016 0z"/>
   <path class="fil8" style="mask:url(#id14)" d="M5769 16667c0,6019 4879,10897 10897,10897l0 1508c-292,0 -583,-11 -870,-31l-2150 2209c-564,-116 -1117,-265 -1656,-443l-757 -2986c-525,-256 -1029,-548 -1509,-873l-2961 837c-428,-381 -834,-787 -1215,-1215l837 -2962c-325,-480 -616,-984 -873,-1509l-2986 -757c-178,-539 -326,-1092 -443,-1656l2209 -2150c-20,-287 -31,-577 -31,-870l1508 0z"/>
  </g>
  <g id="_276274152">
   <path class="fil9" style="mask:url(#id16)" d="M20953 16667c0,1145 -446,2221 -1256,3031 -810,810 -1886,1256 -3031,1256l0 1190c3025,0 5477,-2452 5477,-5477l-1190 0z"/>
   <path class="fil10" style="mask:url(#id18)" d="M23998 16667c0,4049 -3283,7332 -7332,7332l0 -1562c3186,0 5769,-2583 5769,-5769l1562 0z"/>
   <path class="fil11" style="mask:url(#id20)" d="M27272 16667c0,5857 -4748,10605 -10605,10605l0 -3015c4192,0 7589,-3398 7589,-7589l3016 0z"/>
   <path class="fil12" style="mask:url(#id22)" d="M27564 16667c0,6019 -4879,10897 -10897,10897l0 1508c292,0 583,-11 870,-31l2150 2209c564,-116 1117,-265 1656,-443l757 -2986c525,-256 1029,-548 1509,-873l2961 837c428,-381 834,-787 1215,-1215l-837 -2962c325,-480 616,-984 873,-1509l2986 -757c178,-539 326,-1092 443,-1656l-2209 -2150c20,-287 31,-577 31,-870l-1508 0z"/>
  </g>
 </g>
 <g id="gradients">
  <metadata id="CorelCorpID_2Corel-Layer"/>
  <path class="fil13" d="M16667 12380c-1145,0 -2221,446 -3031,1256 -810,810 -1256,1886 -1256,3031 0,1145 446,2221 1256,3031 810,810 1886,1256 3031,1256 1145,0 2221,-446 3031,-1256 810,-810 1256,-1886 1256,-3031 0,-1145 -446,-2221 -1256,-3031 -810,-810 -1886,-1256 -3031,-1256zm0 8365l0 0c-2252,0 -4078,-1826 -4078,-4078 0,-2252 1826,-4078 4078,-4078 2252,0 4078,1826 4078,4078 0,2252 -1826,4078 -4078,4078z"/>
  <path class="fil14" d="M19687 31250c564,-116 1117,-265 1656,-443l-174 -162c-464,149 -939,276 -1413,378l-69 227z"/>
  <g id="_276274848">
   <path class="fil15" d="M11991 30807c539,178 1092,327 1656,443l-69 -227c-474,-102 -949,-228 -1413,-378l-174 162z"/>
   <path class="fil16" d="M22100 27821c525,-256 1029,-548 1509,-872l-37 -227 -80 54c-471,318 -970,607 -1484,858l-87 42 178 145z"/>
   <polygon class="fil17" points="6611,9761 5780,6817 5548,6763 6385,9724 "/>
   <polygon class="fil18" points="5512,11234 2526,11991 2689,12164 5657,11412 "/>
   <polygon class="fil19" points="2083,13647 4292,15797 4507,15715 2311,13577 "/>
   <polygon class="fil20" points="4292,17537 2083,19687 2311,19756 4507,17619 "/>
   <polygon class="fil21" points="2526,21343 5512,22100 5657,21921 2689,21169 "/>
   <polygon class="fil22" points="6385,23609 5548,26570 5780,26517 6611,23572 "/>
   <polygon class="fil23" points="9761,26722 6817,27554 6763,27785 9724,26949 "/>
   <polygon class="fil24" points="12164,30645 11412,27676 11234,27821 11991,30807 "/>
   <polygon class="fil25" points="13647,31250 15797,29041 15715,28827 13577,31023 "/>
   <path class="fil26" d="M17537 29041l2150 2209c564,-116 1117,-265 1656,-443l757 -2986 -178 -145 -752 2968c-464,149 -939,276 -1413,378l-2137 -2196 -82 214z"/>
   <polygon class="fil27" points="23609,26949 26570,27785 26517,27554 23572,26722 "/>
   <polygon class="fil28" points="27785,26570 26949,23609 26722,23572 27554,26517 "/>
   <polygon class="fil29" points="27821,22100 30807,21343 30645,21169 27676,21921 "/>
   <polygon class="fil30" points="31250,19687 29041,17537 28826,17619 31023,19756 "/>
   <polygon class="fil31" points="29041,15797 31250,13647 31023,13577 28826,15715 "/>
   <polygon class="fil32" points="30807,11991 27821,11234 27676,11412 30645,12164 "/>
   <polygon class="fil33" points="26949,9724 27785,6763 27554,6817 26722,9761 "/>
   <polygon class="fil34" points="26570,5548 23609,6385 23572,6611 26517,5780 "/>
   <polygon class="fil35" points="22100,5512 21343,2526 21169,2689 21921,5657 "/>
   <polygon class="fil36" points="19687,2083 17537,4292 17619,4507 19756,2311 "/>
   <polygon class="fil37" points="15797,4292 13647,2083 13577,2311 15715,4507 "/>
   <polygon class="fil38" points="11412,5657 12164,2689 11991,2526 11234,5512 "/>
   <polygon class="fil39" points="9724,6385 6763,5548 6817,5780 9761,6612 "/>
   <path class="fil40" d="M6385 9724c-365,540 -369,477 -873,1509l145 178 42 -87c499,-1023 494,-946 858,-1484l54 -80 -227 -37z"/>
   <path class="fil41" d="M2526 11991c-250,757 -232,631 -443,1656l227 -69c102,-475 229,-949 378,-1413l-162 -174z"/>
   <path class="fil42" d="M4292 15797c-20,287 -31,577 -31,870 0,819 -24,73 31,870l215 82 -7 -96c-55,-798 -30,-42 -30,-856 0,-277 10,-565 30,-855l7 -96 -215 82z"/>
   <path class="fil43" d="M2689 21169c-149,-464 -276,-938 -378,-1413l-227 -69c211,1025 193,899 443,1656l162 -174z"/>
   <path class="fil44" d="M5512 22100c256,525 548,1029 873,1509l227 -37 -54 -80c-319,-471 -607,-970 -858,-1484l-42 -87 -145 178z"/>
   <path class="fil45" d="M5548 26570c381,428 787,834 1215,1215l54 -232c-361,-327 -709,-675 -1037,-1037l-232 54z"/>
   <path class="fil46" d="M9724 26949c480,325 984,616 1509,872l178 -145 -87 -42c-514,-251 -1013,-540 -1484,-858l-80 -54 -37 227z"/>
   <path class="fil47" d="M15797 29041c287,20 577,31 870,31 292,0 582,-11 870,-31l82 -214 -96 7c-291,20 -579,30 -856,30 -276,0 -564,-10 -856,-30l-96 -7 82 214z"/>
   <path class="fil48" d="M26570 27785c428,-381 834,-787 1215,-1215l-232 -54c-328,362 -676,710 -1037,1037l54 232z"/>
   <path class="fil49" d="M26949 23609c325,-480 616,-984 873,-1509l-145 -178 -42 87c-251,514 -539,1013 -858,1484l-54 80 227 37z"/>
   <path class="fil50" d="M30807 21343c178,-539 326,-1092 443,-1656l-227 69c-102,476 -229,950 -378,1413l162 174z"/>
   <path class="fil51" d="M29041 17537c20,-288 31,-578 31,-870 0,-819 27,-36 -31,-870l-215 -82 7 96c58,836 30,41 30,855 0,277 -10,565 -30,856l-7 96 215 -82z"/>
   <path class="fil52" d="M31250 13647c-174,-842 -102,-624 -443,-1656l-162 174c314,976 207,615 378,1413l227 69z"/>
   <path class="fil53" d="M27821 11234c-256,-525 -548,-1029 -873,-1509l-227 37 54 80c662,979 539,830 858,1484l42 87 145 -178z"/>
   <path class="fil54" d="M27785 6763c-381,-428 -787,-834 -1215,-1215l-54 232c362,328 710,676 1037,1037l232 -54z"/>
   <path class="fil55" d="M23609 6385c-480,-325 -984,-616 -1509,-873l-178 145 87 42c514,251 1013,540 1484,858l80 54 37 -227z"/>
   <path class="fil56" d="M21343 2526c-539,-178 -1092,-326 -1656,-443l69 227c475,102 949,229 1413,378l174 -162z"/>
   <path class="fil57" d="M17537 4292c-287,-20 -577,-31 -870,-31 -292,0 -582,11 -870,31l-82 214 96 -7c291,-20 579,-30 856,-30 277,0 565,10 856,30l96 7 -82 -214z"/>
   <path class="fil58" d="M13647 2083c-564,116 -1117,265 -1656,443l174 162c464,-149 938,-276 1413,-378l69 -227z"/>
   <path class="fil59" d="M11234 5512c-525,256 -1029,548 -1509,873l37 227 80 -54c471,-318 970,-607 1484,-858l87 -42 -178 -145z"/>
   <path class="fil60" d="M6763 5548c-428,381 -834,787 -1215,1215l232 54c327,-361 675,-709 1037,-1037l-54 -232z"/>
  </g>
  <g id="_276280944">
   <path class="fil61" d="M16667 5769c-6019,0 -10897,4879 -10897,10897 0,6018 4879,10897 10897,10897 6018,0 10897,-4879 10897,-10897 0,-6019 -4879,-10897 -10897,-10897zm0 21502l0 0c-5857,0 -10605,-4748 -10605,-10605 0,-5857 4748,-10605 10605,-10605 5857,0 10605,4748 10605,10605 0,5857 -4748,10605 -10605,10605z"/>
   <path class="fil62" style="mask:url(#id24)" d="M16667 5908c5974,0 10821,4832 10896,10897 1,-46 1,-93 1,-139 0,-6019 -4879,-10897 -10897,-10897 -6019,0 -10897,4879 -10897,10897 0,46 0,93 1,139 76,-6066 4923,-10897 10897,-10897z"/>
   <path class="fil63" style="mask:url(#id26)" d="M16667 27425c-5974,0 -10821,-4832 -10896,-10897 -1,46 -1,93 -1,139 0,6019 4879,10897 10897,10897 6019,0 10897,-4879 10897,-10897 0,-46 0,-93 -1,-139 -76,6066 -4923,10897 -10897,10897z"/>
  </g>
  <g id="_276280392">
   <path class="fil64" d="M16667 10897c-3186,0 -5769,2583 -5769,5769 0,3186 2583,5769 5769,5769 3186,0 5769,-2583 5769,-5769 0,-3186 -2583,-5769 -5769,-5769zm0 11246l0 0c-3025,0 -5477,-2452 -5477,-5477 0,-3025 2452,-5477 5477,-5477 3025,0 5477,2452 5477,5477 0,3025 -2452,5477 -5477,5477z"/>
   <path class="fil65" style="mask:url(#id28)" d="M16667 11050c3161,0 5728,2542 5769,5693 0,-25 1,-51 1,-76 0,-3186 -2583,-5769 -5769,-5769 -3186,0 -5769,2583 -5769,5769 0,25 0,51 1,76 41,-3151 2608,-5693 5769,-5693z"/>
   <path class="fil66" style="mask:url(#id30)" d="M16667 22283c-3161,0 -5728,-2542 -5769,-5693 0,25 -1,51 -1,76 0,3186 2583,5769 5769,5769 3186,0 5769,-2583 5769,-5769 0,-26 0,-51 -1,-76 -41,3151 -2608,5693 -5769,5693z"/>
  </g>
  <g id="_276281520">
   <path class="fil67" d="M16667 9077c-4192,0 -7589,3398 -7589,7589 0,4191 3398,7589 7589,7589 4192,0 7589,-3398 7589,-7589 0,-4192 -3398,-7589 -7589,-7589zm0 14921l0 0c-4049,0 -7332,-3283 -7332,-7332 0,-4049 3283,-7332 7332,-7332 4049,0 7332,3283 7332,7332 0,4049 -3283,7332 -7332,7332z"/>
   <path class="fil68" style="mask:url(#id32)" d="M16667 9202c4171,0 7555,3364 7589,7527 0,-21 0,-42 0,-62 0,-4192 -3398,-7589 -7589,-7589 -4192,0 -7589,3398 -7589,7589 0,21 0,42 0,62 34,-4163 3418,-7527 7589,-7527z"/>
   <path class="fil69" style="mask:url(#id34)" d="M16667 24131c-4171,0 -7555,-3364 -7589,-7527 0,21 0,42 0,63 0,4192 3398,7589 7589,7589 4192,0 7589,-3398 7589,-7589 0,-21 0,-42 0,-63 -34,4163 -3418,7527 -7589,7527z"/>
  </g>
 </g>
</svg>
